<?xml version="1.0" standalone="no"?>
<!DOCTYPE svg PUBLIC "-//W3C//DTD SVG 20010904//EN"
 "http://www.w3.org/TR/2001/REC-SVG-20010904/DTD/svg10.dtd">
<svg version="1.0" xmlns="http://www.w3.org/2000/svg"
 width="260.000000pt" height="260.000000pt" viewBox="0 0 260.000000 260.000000"
 preserveAspectRatio="xMidYMid meet">
<metadata>
Created by potrace 1.14, written by Peter Selinger 2001-2017
</metadata>
<g transform="translate(0.000000,260.000000) scale(0.100000,-0.100000)"
fill="#000000" stroke="none">
<path d="M149 2018 c0 -7 -1 -336 -2 -731 l-2 -717 102 0 c91 0 103 2 113 19
5 11 7 22 3 24 -7 4 -9 113 -3 142 1 6 1 15 0 20 -5 23 -2 134 4 144 4 5 3 12
-2 15 -4 2 -6 31 -4 63 2 32 3 63 3 68 1 6 -1 25 -4 43 -2 17 -1 32 3 32 9 0
8 18 -1 35 -2 6 -4 28 -2 50 4 77 4 100 0 128 -2 15 -1 27 4 27 5 0 6 6 3 13
-3 9 9 13 46 13 l50 1 0 -53 0 -54 54 0 54 0 -2 -45 c-3 -50 4 -67 25 -65 8 1
30 2 49 1 35 -1 35 -1 33 -46 -1 -25 2 -46 8 -46 5 -1 23 -3 39 -4 17 -1 36
-3 44 -4 10 -1 13 -13 11 -46 -3 -53 4 -59 62 -58 42 1 43 0 44 -30 3 -74 1
-72 48 -74 24 -1 46 -5 50 -8 3 -4 7 -68 7 -143 1 -76 2 -143 3 -149 1 -10 30
-13 107 -13 90 0 105 2 100 15 -3 8 -1 15 5 15 6 0 7 5 3 12 -8 13 -12 128 -4
128 3 0 5 12 4 28 -1 15 -3 27 -4 27 -1 0 -3 10 -4 22 -2 13 1 23 6 23 5 0 6
5 2 12 -9 14 -12 128 -4 128 3 0 5 11 5 25 0 14 -3 25 -6 25 -8 0 -5 33 5 48
4 6 4 12 -1 12 -4 0 -8 29 -8 65 0 36 2 65 5 65 3 0 5 12 4 28 -1 15 -3 27 -4
27 -1 0 -3 10 -4 23 -2 12 1 22 6 22 5 0 6 5 2 12 -9 14 -12 128 -4 128 3 0 5
11 5 25 0 14 -3 25 -6 25 -8 0 -5 33 5 48 4 6 4 12 -1 12 -4 0 -8 29 -8 65 0
36 2 65 5 65 3 0 5 12 4 28 -1 15 -3 27 -4 27 -1 0 -3 10 -4 23 -2 12 1 22 6
22 5 0 6 5 2 12 -10 15 -11 128 -2 128 5 0 4 22 -2 40 -1 3 -3 14 -4 25 -1 18
-9 20 -103 23 -78 2 -103 0 -104 -10 -1 -7 -2 -195 -3 -418 l-1 -405 -50 0
-50 0 0 50 -1 50 -52 3 c-56 3 -53 0 -56 72 -1 37 1 36 -77 39 -26 1 -27 3
-25 51 3 55 0 57 -62 55 -45 -2 -45 -1 -43 58 l1 37 -47 1 c-27 1 -52 1 -56 0
-5 -1 -7 23 -5 53 l3 55 -48 -1 c-27 0 -51 2 -54 5 -7 8 -7 143 1 155 3 6 3
13 -2 15 -9 6 -7 71 3 86 3 6 2 11 -3 11 -6 0 -9 8 -8 18 1 15 -11 17 -101 20
-78 2 -103 0 -104 -10z"/>
<path d="M1404 1300 l1 -731 105 3 105 3 1 300 c1 165 2 305 3 310 1 11 608
12 618 1 10 -9 10 -50 0 -63 -6 -8 -6 -13 0 -13 11 0 11 -29 -1 -48 -4 -6 -3
-12 2 -12 10 0 9 -30 -2 -48 -4 -6 -3 -12 3 -12 6 0 6 -11 1 -29 -4 -15 -4
-34 0 -42 5 -7 5 -20 0 -29 -5 -9 -5 -22 0 -30 5 -8 5 -21 0 -30 -5 -9 -5 -22
0 -30 5 -8 5 -21 0 -31 -5 -9 -7 -19 -3 -22 9 -10 10 -50 1 -74 -4 -13 -4 -23
0 -23 5 0 7 -18 6 -40 l-1 -41 106 3 106 3 0 725 0 725 -107 3 -107 3 3 -28
c1 -15 -1 -38 -6 -50 -4 -13 -4 -23 1 -23 9 0 8 -31 -3 -48 -4 -6 -3 -12 2
-12 10 0 9 -30 -2 -48 -4 -6 -3 -12 2 -12 10 0 9 -30 -2 -48 -4 -6 -3 -12 2
-12 10 0 9 -30 -2 -48 -4 -6 -3 -12 2 -12 10 0 9 -30 -2 -48 -4 -6 -3 -12 3
-12 6 0 6 -11 1 -29 -4 -16 -6 -32 -3 -35 10 -9 10 -51 0 -63 -6 -8 -6 -13 0
-13 10 0 10 -66 0 -76 -5 -5 -556 -9 -612 -5 -7 1 -10 101 -10 299 1 163 -1
303 -3 310 -3 8 -33 12 -106 12 l-102 0 0 -730z"/>
</g>
</svg>
